<svg width="649" height="213" viewBox="0 0 649 213" fill="none" xmlns="http://www.w3.org/2000/svg">
<path d="M16.7269 19.605C15.4359 21.9104 14.9386 24.5764 15.3117 27.1923C15.6177 29.3235 16.4884 31.3341 17.8334 33.0154C19.1785 34.6967 20.9489 35.9875 22.961 36.7539C25.4312 37.6921 28.1412 37.7922 30.6738 37.0387C33.2065 36.2853 35.4212 34.7202 36.9769 32.5843C38.5326 30.4485 39.3429 27.8605 39.2832 25.2189C39.2234 22.5772 38.2969 20.0284 36.6462 17.9651C34.9956 15.9018 32.7124 14.4384 30.1483 13.8002C27.5842 13.1621 24.8814 13.3846 22.4562 14.4335C20.031 15.4824 18.0179 17.2995 16.7269 19.605Z" fill="white"/>
<path d="M16.1782 117.568C16.1782 123.305 12.9082 126.862 8.26124 126.862H0V143.9C1.72109 145.105 6.36805 146.138 11.015 146.138C25.6442 146.138 38.036 134.779 38.036 120.149V49.0583H16.1782V117.568Z" fill="white"/>
<path d="M130.732 99.9951V117.894C128.897 118.753 126.905 119.222 124.88 119.271C120.637 119.338 116.45 118.293 112.736 116.24C109.022 114.187 105.91 111.197 103.711 107.568C100.986 111.254 97.4234 114.238 93.3164 116.274C89.2094 118.309 84.6767 119.336 80.0935 119.271C60.9703 119.271 46.0159 103.437 46.0159 83.4727C46.0159 63.508 60.9703 47.674 80.0935 47.674C87.3363 47.559 94.3513 50.205 99.7139 55.0747V49.0509H121.572V93.2829C121.572 99.0198 124.67 99.9951 127.596 99.9951H130.732ZM100.785 83.4727C100.771 80.6486 100.032 77.8754 98.6391 75.4189C97.2458 72.9625 95.2448 70.9052 92.8279 69.4443C90.4111 67.9835 87.6594 67.168 84.8368 67.0762C82.0143 66.9843 79.2154 67.6192 76.7087 68.9199C74.9128 69.7893 73.3102 71.0109 71.9961 72.5123C70.682 74.0137 69.6833 75.764 69.0594 77.6592C68.2216 79.9061 67.8872 82.3096 68.0796 84.6999C68.2721 87.0902 68.9867 89.4091 70.1732 91.4931C71.3597 93.5771 72.989 95.3753 74.9462 96.7609C76.9035 98.1464 79.141 99.0856 81.5008 99.512C83.8606 99.9385 86.2852 99.8419 88.6036 99.2291C90.9221 98.6162 93.0778 97.502 94.9186 95.9651C96.7594 94.4283 98.2405 92.5062 99.2574 90.3344C100.274 88.1627 100.802 85.7942 100.804 83.3961L100.785 83.4727Z" fill="white"/>
<path d="M140.612 117.895V49.0486H162.641V56.7958C164.992 53.9589 167.937 51.6718 171.267 50.0958C174.598 48.5198 178.233 47.6932 181.918 47.6741C191.344 47.6741 199.432 52.946 203.683 61.0366C204.639 59.6404 205.802 58.0306 206.871 56.7958C209.242 54.0553 212.166 51.6718 215.497 50.0958C218.827 48.5198 222.462 47.6932 226.147 47.6741C240.088 47.6741 251.103 59.2054 251.103 74.3318V117.875H229.073V77.9652C229.133 76.5544 228.904 75.1462 228.402 73.8264C227.9 72.5066 227.135 71.3028 226.153 70.2884C225.171 69.274 223.992 68.4701 222.689 67.9258C221.386 67.3815 219.986 67.1082 218.574 67.1224C215.462 67.1919 212.5 68.4707 210.315 70.6877C208.172 72.862 206.943 75.7711 206.873 78.8186V117.875H184.844V77.9652C184.903 76.5544 184.675 75.1462 184.173 73.8264C183.671 72.5066 182.906 71.3028 181.923 70.2884C180.941 69.274 179.763 68.4701 178.46 67.9258C177.157 67.3815 175.757 67.1082 174.345 67.1224C171.233 67.1919 168.271 68.4707 166.086 70.6877C163.901 72.9047 162.666 75.8854 162.641 78.9979V117.895H140.612Z" fill="white"/>
<path fill-rule="evenodd" clip-rule="evenodd" d="M284.925 111.959V117.895H262.895V0H284.925V55.0664C290.286 50.2021 297.297 47.5592 304.536 47.6741C323.659 47.6741 338.613 63.5081 338.613 83.4728C338.613 103.437 323.659 119.271 304.536 119.271C299.953 119.337 295.42 118.309 291.313 116.274C288.992 115.124 286.845 113.671 284.925 111.959ZM285.99 75.4191C284.597 77.8755 283.858 80.6487 283.845 83.4728L283.825 83.3963C283.827 85.7943 284.355 88.1628 285.372 90.3346C286.389 92.5063 287.87 94.4284 289.711 95.9652C291.552 97.5021 293.707 98.6163 296.026 99.2292C298.344 99.842 300.769 99.9387 303.129 99.5122C305.488 99.0857 307.726 98.1465 309.683 96.761C311.64 95.3754 313.27 93.5772 314.456 91.4932C315.643 89.4093 316.357 87.0903 316.55 84.7C316.742 82.3097 316.408 79.9063 315.57 77.6593C314.946 75.7641 313.947 74.0138 312.633 72.5124C311.319 71.0111 309.717 69.7894 307.921 68.92C305.414 67.6194 302.615 66.9845 299.793 67.0763C296.97 67.1681 294.218 67.9836 291.801 69.4445C289.385 70.9053 287.384 72.9626 285.99 75.4191Z" fill="white"/>
<path d="M346.581 83.4727C346.581 62.8197 361.879 47.6741 384.961 47.6741C408.043 47.6741 423.207 62.8197 423.207 83.4727C423.207 104.126 408.062 119.271 384.961 119.271C361.86 119.271 346.581 104.126 346.581 83.4727ZM401.311 83.4727C401.311 80.2389 400.352 77.0778 398.556 74.389C396.759 71.7002 394.206 69.6045 391.218 68.367C388.23 67.1295 384.943 66.8057 381.771 67.4366C378.6 68.0674 375.686 69.6246 373.4 71.9113C371.113 74.1979 369.556 77.1113 368.925 80.2829C368.294 83.4546 368.618 86.7421 369.855 89.7297C371.093 92.7174 373.188 95.271 375.877 97.0676C378.566 98.8641 381.727 99.823 384.961 99.823C387.112 99.8462 389.246 99.4388 391.237 98.6246C393.228 97.8104 395.036 96.606 396.554 95.0823C398.072 93.5586 399.27 91.7464 400.078 89.7526C400.885 87.7588 401.285 85.6235 401.254 83.4727H401.311Z" fill="white"/>
<path d="M431.175 49.0431V117.895H453.205V78.9979C453.229 75.8854 454.464 72.9047 456.649 70.6877C458.834 68.4707 461.796 67.1919 464.908 67.1224C466.32 67.1082 467.72 67.3815 469.023 67.9258C470.326 68.4701 471.505 69.274 472.487 70.2884C473.469 71.3028 474.235 72.5066 474.737 73.8264C475.239 75.1462 475.467 76.5544 475.407 77.9652V117.875H497.437V74.3318C497.437 59.2054 486.422 47.6741 472.481 47.6741C468.797 47.6932 465.161 48.5198 461.831 50.0958C458.5 51.6718 455.556 53.9589 453.205 56.7958V49.0431H431.175Z" fill="white"/>
<path fill-rule="evenodd" clip-rule="evenodd" d="M552.288 67.2054C550.533 65.2934 547.308 63.3419 541.476 63.5469C529.761 63.9587 523.766 75.0885 525.135 81.5759C526.226 86.7428 522.921 91.8154 517.754 92.9059C512.587 93.9964 507.515 90.6918 506.424 85.5249C502.712 67.9368 516.694 45.283 540.804 44.4355C551.73 44.0515 560.519 47.8936 566.376 54.2733C572.026 60.4288 574.505 68.4947 573.837 75.8471C572.514 90.4014 561.294 98.132 553.314 103.169L552.947 103.401C560.751 105.477 567.732 109.3 573.654 114.473C581.83 121.615 587.724 131.083 591.132 141.515C602.593 146.006 613.885 152.148 624.164 160.113C625.588 154.886 629.044 147.961 632.213 145.361C640.793 161.753 646.346 185.684 648.305 203.786C636.364 198.042 613.993 190.787 598.981 188.666C601.859 183.086 607.729 177.682 612.267 175.088C606.644 170.752 600.635 167.037 594.441 163.914C593.768 176.812 587.773 188.12 579.654 196.456C570.419 205.94 557.705 212.351 545.014 212.939C533.206 213.486 522.067 210.344 513.76 203.503C505.292 196.53 500.444 186.23 500.745 174.206C501.035 162.596 505.809 151.435 514.635 143.457C523.54 135.409 535.977 131.123 550.61 132.187C555.615 132.551 560.807 133.234 566.097 134.255C564.577 132.272 562.896 130.467 561.073 128.875C553.309 122.093 542.394 118.61 528.39 122.148C528.065 122.23 527.739 122.295 527.412 122.342C522.518 123.318 518.103 123.096 516.388 120.409C514.27 117.092 514.163 112.712 519.024 106.168C522.272 101.538 526.394 98.0112 530.331 95.1763C533.391 92.973 536.851 90.8513 539.885 88.9914C541.035 88.2863 542.124 87.6186 543.106 86.9986C551.38 81.7756 554.396 78.4765 554.792 74.1157C554.978 72.0653 554.249 69.3415 552.288 67.2054ZM574.952 156.124C566.16 153.452 557.408 151.855 549.223 151.26C539.229 150.533 532.089 153.458 527.458 157.644C522.749 161.9 520.029 167.996 519.862 174.684C519.705 180.957 522.088 185.588 525.917 188.741C529.907 192.027 536.131 194.207 544.128 193.836C551.243 193.507 559.559 189.682 565.954 183.114C572.254 176.645 575.96 168.286 575.305 159.444C575.222 158.326 575.104 157.219 574.952 156.124Z" fill="#DA1C5C"/>
</svg>
